<?xml version="1.0" standalone="no"?>
<!DOCTYPE svg PUBLIC "-//W3C//DTD SVG 20010904//EN"
 "http://www.w3.org/TR/2001/REC-SVG-20010904/DTD/svg10.dtd">
<svg version="1.0" xmlns="http://www.w3.org/2000/svg"
 width="2016.000000pt" height="2016.000000pt" viewBox="0 0 2016.000000 2016.000000"
 preserveAspectRatio="xMidYMid meet">
<metadata>
Created by potrace 1.11, written by Peter Selinger 2001-2013
</metadata>
<g transform="translate(0.000000,2016.000000) scale(0.100000,-0.100000)"
fill="#000000" stroke="none">
<path d="M862 19295 c-4 -5 -7 -1993 -7 -4417 l0 -4408 30 0 c227 -4 8798 -1
8802 3 3 4 7 8344 3 8777 l0 55 -4411 0 c-2968 0 -4413 -3 -4417 -10z"/>
<path d="M10469 19276 c-1 -41 -1 -8753 0 -8786 l1 -25 4397 2 c2419 1 4407 2
4419 2 l20 1 0 4415 c0 2428 -2 4416 -5 4417 -4 0 -1992 2 -4418 3 l-4413 1
-1 -30z"/>
<path d="M894 9692 l-40 -3 0 -4414 c0 -2428 2 -4416 5 -4416 4 -1 1992 -3
4419 -4 l4412 -1 1 40 c1 53 1 8755 0 8781 -1 20 -8 20 -4379 20 -2407 0
-4395 -1 -4418 -3z"/>
<path d="M10493 9692 c-13 -2 -23 -6 -24 -10 -1 -9 -1 -8781 0 -8808 l1 -20
4418 0 4417 1 1 4418 c0 2429 -2 4417 -5 4418 -19 2 -8790 3 -8808 1z"/>
</g>
</svg>
